<svg xmlns="http://www.w3.org/2000/svg" width="1056" height="888" viewBox="0 0 1056 888">
  <defs>
    <rect id="rect-1" width="1056" height="888" x="0" y="0"/>
  </defs>
  <rect width="1056" height="468" x="0" y="0" fill="none" rx="0" ry="0"/>
  <g transform="matrix(-1 0 0 1 832 304)">
    <g transform="translate(82)">
      <path fill="rgb(178,139,103)" fill-rule="evenodd" d="M92.14334106 40.13393307c5.79481125 10.8011217 5.1062355 38.1990633-2.38304138 40.12952518-2.9867134.76986695-9.34929657-1.1159935-15.82492256-5.01914596L78 104H54l8.26227379-38.50987244c-4.60790944-5.40875053-7.72663903-12.03725052-7.2054975-19.464674 1.50155377-21.40047406 31.29175353-16.69264244 37.08656477-5.8915205z"/>
      <path fill="rgb(25,24,71)" fill-rule="evenodd" d="M60.41813835 70.30752007C57.40590211 56.90645876 48.82453271 47.77140432 50.13511366 41.781703c1.31058096-5.98970131 6.98618226-7.44956992 6.98618226-7.44956992s2.93536725-11.87494836 18.93432334-10.10175676c15.9989561 1.7731916 25.76382832 8.41738238 21.54686261 23.03750155-3.87638315 0-8.55600605-1.40189123-15.02695191 1-3.07980753 1.1431656-4.40553724 7.09011364-4.40553724 7.09011364h-2.92419487s-4.25708145-7.05740147-8.39501917-5.1868049c-4.13793771 1.87059656-1.88124102 9.08737307-1.88124102 9.08737307l-1.44046163 11.04896038h-3.11093768z"/>
    </g>
    <g transform="translate(0 187)">
      <path fill="rgb(197,207,214)" fill-rule="evenodd" d="M184 42H69c-8.83063889 0-16 7.16935968-16 16v92c0 8.8306427 7.16936111 16 16 16h115c8.8306427 0 16-7.1693573 16-16V58c0-8.83064032-7.1693573-16-16-16zm-16 28H85c-2.20765686 0-4 1.79233932-4 4v60c0 2.20765686 1.79234314 4 4 4h83c2.20765686 0 4-1.79234314 4-4V74c0-2.20766068-1.79234314-4-4-4z"/>
      <path fill="rgb(178,139,103)" fill-rule="evenodd" d="M299.15896374 161c-19.71586876-24.0758252-33.05609671-41.9245654-40.02068384-53.5462206-11.92506402-19.89909517-21.68515882-37.60561474-24.76520152-44.3694255-7.34475685-16.12917428 16.9088174-23.68173576 22.3979521-16.15855391C265.07905388 58.3124345 282.82204371 94.14296739 310 154.41739867L299.15896374 161z"/>
      <path fill="rgb(47,54,118)" fill-rule="evenodd" d="M258.75756695 154l-36.69236977-92.3632231c-7.84776786-16.83719977 30.0505605-27.90470044 35.81807693-20.06900507C270.9773219 59.35722607 302.09884571 129.5340427 306 134.83411543L258.75756695 154z"/>
      <path fill="rgb(178,139,103)" fill-rule="evenodd" d="M161.03302135 135.47696793c7.14752327-10.42601241 33.14550841-45.50261978 47.3059564-60.01591593 4.06914485-4.17053927 8.03959695-8.17343364 11.7949069-11.90366458 11.16210999-11.08756626 33.38981386 7.54829286 22.24828939 17.64721413-27.74679938 25.15030532-68.23110449 59.10234103-71.61359494 62.12958414-4.74070478 4.24281047-14.22755325-1.30479407-9.73555775-7.85721776z"/>
      <path fill="rgb(228,228,228)" fill-rule="evenodd" d="M165.60246668 131.22829544c-.634995-.98375116-1.9755046-1.21403046-2.90239546-.4985877 0 0-3.44819015 2.66156756-4.80065525 5.0041048-1.35246509 2.34253726-3.16666695 7.28731033-3.16666695 7.28731033l48.8453969 28.20091525s5.53809882-5.19521632 1.72571658-8.06548977c-3.81238224-2.87027346-6.29217702-4.84124634-6.29217702-4.84124634l-16.85947672-23.22856875c-.33093094-.45594844-.97300847-.54865139-1.41939522-.20493182l-3.50311877 2.69741531s-4.82048726-.42066754-7.19472521-1.79143505c-2.37423796-1.37076752-4.43250288-4.55948626-4.43250288-4.55948626z"/>
      <path fill="rgb(228,228,228)" fill-rule="evenodd" d="M293.4182776 156.35225237c-1.0417975-.5344558-2.31785241-.06362848-2.76284187 1.01940863 0 0-1.65543573 4.02908051-1.65543573 6.73400982C289 166.81060014 289.90124261 172 289.90124261 172h56.4018122s2.19852474-7.26823912-2.53823196-7.84777684c-4.7367567-.57953773-7.8698085-1.04655234-7.8698085-1.04655234l-26.2150217-11.68678736c-.51456887-.22939737-1.11697575.0113584-1.33169813.5322217l-1.68508143 4.08758988s-4.38499781 2.04593567-7.12653195 2.04593567c-2.74153414 0-6.11840355-1.73237834-6.11840355-1.73237834z"/>
      <path fill="rgb(92,99,171)" fill-rule="evenodd" d="M208.86209056 66.25005224s-45.74522757-7.45247562-61.2815481-10.1919481C118.05745105 50.85238655 109.4482664 34.96533055 114.53847605.30222865h54.39579416c10.7976136 3.11814743 90.23323808 38.5694606 90.23323808 38.5694606 9.52802374 4.72984405 7.75359238 18.67580896 6.01203898 23.2703875-.1065408.28107668-48.18726704 82.57066089-48.18726704 82.57066089l-44.49805313-28.34724733 36.45143146-46.77510275s1.44397124-2.90835026-.083568-3.34033533z"/>
    </g>
    <g transform="translate(22 82)">
      <path fill="rgb(178,139,103)" fill-rule="evenodd" d="M190.7811966 92.21148682l31.8982849 23.42359924c8.65145875 2.33448029 15.87948609 5.2389679 21.68405152 8.7134552 1.37115479 1.2494049 3.0282898 3.77966309-2.65814209 3.34236145-5.6864624-.43728638-11.68743896-.64151001-12.4720459 1.29804993-.34359741.8493042.12310791 1.77145385.62316895 2.759552.64193725 1.2684021 1.33883667 2.64544678.44729614 4.1164856q-.09753418.16091918-.23971558.25242614-2.1703186 1.396698-14.74667358-13.37636566l-31.58764648-13.0986023 7.05142211-17.4309616zM36.00457763 173.68966675c7.35775375-5.04512024 17.96072387-13.875 19.3933525-16.78141785C58.32839585 150.96310425 68.30793 93.01988983 68.30793 93.01988983l20.89739228.08217621s-19.35476685 62.48051453-20.89739228 66.3035431c-2.00391388 4.96620177 1.40000153 12.18167113 3.70814514 17.07437133.35709382.756958.68795777 1.45829773.9685135 2.08712768-3.20269013 1.43310547-4.7411499-.29911804-6.36309052-2.12533569-1.8319397-2.06266785-3.77037811-4.24523926-8.3335762-2.12228393-1.76298905.82020568-3.43126297 1.78991699-5.0611496 2.73731994-5.62997055 3.27252197-10.8019638 6.27885437-17.83773422 1.9375763-1.11543274-.68826294-2.33776093-3.27966309.61553955-5.30471802z"/>
      <path fill="rgb(232,118,19)" fill-rule="evenodd" d="M127.6949955 5.33202845l8.6471231-1.48316787c32.08334349 27.71541036 45.26112071 80.96004627 84.58737897 109.16590779l-9.46549766 11.73285383c-68.22388677-8.44714784-85.13376802-73.39281898-83.76900442-119.41559375z"/>
      <path fill="rgb(221,227,233)" fill-rule="evenodd" d="M90 114h76.5114507c3.4961831 0 2.83739407-5.0483629 2.33199964-7.59579448-5.8328626-29.40043923-28.60214608-61.09269004-28.60214608-102.94347522L118.1718001 0C99.91748497 29.35840682 93.6048263 65.50454992 90 114z"/>
      <path fill="rgb(255,155,33)" fill-rule="evenodd" d="M92.93153381 28.51287651C88.91584778 28.22588348 85.29122161 26.5454731 83 22.41119003 74.9335556 7.85607624 77.84672546-.15759277 86.4671936-2.79173088c4.74028778-1.4484787 9.19850922-.45980573 14.53523255.72368741 4.36697387.96843767 9.32219696 2.06732535 15.50154114 2.06804323L116.51002502 0c.59882355 0 1.14380646.04012132 1.6385193.11686563l7.32304381.41787434s29.7335968 100.77067804 16.4006958 134.46526575H81.39686585c-3.43861389 8.25863648-6.81056213 15.46487427-9.98786926 21H55C53.23459625 98.91862297 74.8454361 54.99643517 92.93153381 28.51287652z"/>
      <path fill="rgb(0,0,0)" fill-opacity=".1" fill-rule="evenodd" d="M81.39686584 135c4.51171875-10.83595276 9.13822175-23.48366547 13.59046174-36.545578C96.6446762 112.83889008 99.40472412 127.28636932 104 135H81.39686584z"/>
    </g>
  </g>
  <g transform="translate(101 268)">
    <g transform="translate(82)">
      <path fill="rgb(178,139,103)" fill-rule="evenodd" d="M92.14334106 40.13393307c5.79481125 10.8011217 5.1062355 38.1990633-2.38304138 40.12952518-2.9867134.76986695-9.34929657-1.1159935-15.82492256-5.01914596L78 104H54l8.26227379-38.50987244c-4.60790944-5.40875053-7.72663903-12.03725052-7.2054975-19.464674 1.50155377-21.40047406 31.29175353-16.69264244 37.08656477-5.8915205z"/>
      <path fill="rgb(25,24,71)" fill-rule="evenodd" d="M75.13532257 48.38890076c2.07588959-3.09104538 4.06892395-5.44876862 6.66148377-6.8179474 10.55106353.16672898 11.78635406-1.72478103 11.78635406-8.1000061-1.70414734-1.21943283-7.71720123-3.27278327-14.45110321-3.85037612-3.43517303-.98303795-7.50460815-.79815102-11.4247055.84163856-4.83931733 1.37303162-8.9368744 4.33003426-10.74686432 9.86606789-6.54836274 11.30069351-1.57807923 23.06440162 5.11989975 27.08291817 1.78290176-2.11231232 3.33880996-4.15937806 4.72713089-6.11898041C65.69229126 60.20274353 65 58.68222045 65 57c0-3.31370544 2.68629456-6 6-6 .24360657 0 .48382568.01451874.71983337.04273605.14913178 4.14303208.76270295 18.1599102 2.37458802 23.02873803 1.90034485 5.7401123 12.98926544 7.14952087 16.8568039 7.14952087 3.34047698 0 3.22660827-3.16319275 3.14500426-5.43019867-.01174926-.32647705-.02283477-.63437653-.02283477-.91156006 0-.57913208-.7532425-.57762909-1.60430909-.57593536-1.10511017.00219726-2.37516784.0047226-2.37516784-1.263237 0-2.2444458 5.0367813-3.6398697 6.07104492-5.08758545 1.2536087-1.75473786 1.67585754-4.12143707-.21537018-4.12143707-2.5943985 0-7.61099243 3.75365448-13.52379608 3.75365448-5.87599945 0-7.27331543-18.9597187-7.29047394-19.19579506z"/>
    </g>
    <g transform="translate(0 187)">
      <path fill="rgb(25,24,71)" fill-rule="evenodd" d="M128 0l36.25496225 127.22690916L190.7069573 221H210L181.89097407 0H128z"/>
      <path fill="rgb(47,54,118)" fill-rule="evenodd" d="M118.30434211 0c-.83857375 65.57422437-3.6980947 101.34018825-4.57856282 107.29789163C112.84531115 113.25559502 99.53217183 151.15629781 73.78636132 221h19.98628545c32.77638651-67.00309831 51.07300404-104.9038011 54.88985257-113.70210837C152.47934788 98.49958437 164.25851476 62.7336205 182 0h-63.69565789z"/>
      <path fill="rgb(25,24,71)" fill-rule="evenodd" d="M72 239l1-21h21c14.93640491 10.5 39 17 39 17v4H95l-13-2v2H72z"/>
      <path fill="rgb(25,24,71)" fill-rule="evenodd" d="M188 239l1-21h21c14.93640491 10.5 39 17 39 17v4h-38l-13-2v2h-10z"/>
    </g>
    <g transform="translate(22 82)">
      <path fill="rgb(178,139,103)" fill-rule="evenodd" d="M6.8242693 155.20285034c7.98829555-3.97201538 19.71695804-11.24031067 21.5401411-13.91906738 3.72934723-5.47943115 25.30272865-63.74786377 25.30272865-63.74786377l17.71178437 2.57221985s-28.51804352 61.87428284-30.57772065 65.44541931c-2.67558288 4.6389923-.30898285 12.25801086 1.295784 17.42436218.24826813.79924011.47829437 1.53979492.66860199 2.20152283-3.37097168.97343445-4.65338135-.95603943-6.00537872-2.99021912-1.5270443-2.29754638-3.14286232-4.72865295-7.95711136-3.26142883-1.85998535.56686401-3.6469841 1.29496765-5.39286804 2.00630188-6.03061104 2.45713806-11.570673 4.71440125-17.93378544-.56382751-1.00878859-.836792-1.85856843-3.5730896 1.3478241-5.16741944zM190.35887336 88.6100235l30.18663025 25.59165192c8.46754455 2.93228912 15.4753418 6.33389282 21.02340698 10.20483398 1.2806549 1.3420105 2.75727844 3.98168945-2.88482666 3.14880371-5.6421051-.832901-11.61419678-1.45523071-12.5322113.42487335-.40197754.82326508-.00076294 1.7757187.4291687 2.7963028.55187988 1.3100891 1.15103149 2.73240661.15904235 4.1376648-1.17651367 1.66664123-5.85462951-3.0458069-14.0343933-14.13737489l-30.59698487-15.27013397 8.25016785-16.8966217z"/>
      <path fill="rgb(197,207,214)" fill-rule="evenodd" d="M127.6949954 5.33202858l10.97493636-3.62939221c14.88754145 37.19023143 37.0905734 73.17368846 74.18720244 103.56755203l-9.17353002 15.82659214c-32.60266862-19.2051257-63.46507532-34.12400926-75.98861043-62.94208946-4.20322213-9.67209269-.34294615-41.25772241.00000165-52.8226625z"/>
      <path fill="rgb(50,51,55)" fill-rule="evenodd" d="M90 110s47.15748912 5 74.23623368 0c2.23658324-.41297765 2.58943343-4.15761166 1.5522207-6.69903417-16.15210168-39.5765631-27.22815252-74.10933927-27.22815252-101.5983285C134.11474082 3.94386364 123 2.37438889 123 2.37438889 103.08620167 30.70267617 93.93253778 63.20614466 90 110z"/>
      <path fill="rgb(221,227,233)" fill-rule="evenodd" d="M117.29317093 0c.51400757-.34637004.78544617-.5186758.78544617-.5186758L118.0493965 0h8.2990265c1.93234252 11.36487103 8.0270996 165.26258945 26.84217834 215.60597324H51.38531875c2.14802933-44.88418579 18.69633866-98.5592575 35.83890916-144.13565063-12.64977265 12.5854721-27.42295456 33.68260193-39.36236954 68.80236816l-19.06923676-4.89505005C48.22592163 51.63823414 105.16194534 8.45168495 116.20959854.74382352c.1078949-.24927627.21522522-.49722104.32199097-.74382352h.76158142z"/>
    </g>
  </g>
</svg>
